<?xml version="1.0" encoding="UTF-8"?>
<!DOCTYPE svg PUBLIC "-//W3C//DTD SVG 1.1//EN" "http://www.w3.org/Graphics/SVG/1.1/DTD/svg11.dtd">
<svg xmlns="http://www.w3.org/2000/svg" version="1.1" width="634px" height="671px" style="shape-rendering:geometricPrecision; text-rendering:geometricPrecision; image-rendering:optimizeQuality; fill-rule:evenodd; clip-rule:evenodd" xmlns:xlink="http://www.w3.org/1999/xlink">
<g><path style="opacity:0.426" fill="#0b0c04" d="M 305.5,21.5 C 415.603,19.6451 504.436,61.6451 572,147.5C 634.565,237.588 648.565,334.921 614,439.5C 572.341,544.16 496.841,609.994 387.5,637C 284.978,656.49 193.978,632.49 114.5,565C 29.3646,483.444 -2.80202,384.277 18,267.5C 41.445,168.412 98.6117,96.2456 189.5,51C 226.453,33.9818 265.119,24.1485 305.5,21.5 Z"/></g>
<g><path style="opacity:1" fill="#a7e71e" d="M 409.5,39.5 C 409.348,41.2424 409.348,43.0757 409.5,45C 407.355,46.8175 407.355,48.3175 409.5,49.5C 408.96,50.7481 408.293,51.9148 407.5,53C 408.634,54.016 408.301,54.6827 406.5,55C 408.883,55.065 409.55,55.8983 408.5,57.5C 409.383,58.548 410.05,59.7147 410.5,61C 409.139,63.7296 408.639,66.5629 409,69.5C 409.333,69.1667 409.667,68.8333 410,68.5C 410.49,69.7932 410.657,71.1266 410.5,72.5C 409.5,72.5 408.5,72.5 407.5,72.5C 354.543,56.7009 301.209,55.3676 247.5,68.5C 246.193,67.1984 246.193,65.865 247.5,64.5C 246.833,63.8333 246.167,63.1667 245.5,62.5C 246.767,60.6293 246.767,58.7959 245.5,57C 248.167,56.3333 248.167,55.6667 245.5,55C 246.167,54.3333 246.833,53.6667 247.5,53C 247.943,51.4815 247.276,50.3148 245.5,49.5C 248.177,47.7362 247.844,46.5696 244.5,46C 246.513,44.2087 246.513,42.8753 244.5,42C 245.167,41.6667 245.833,41.3333 246.5,41C 246.088,39.4361 245.755,37.9361 245.5,36.5C 268.851,29.4929 292.851,26.1596 317.5,26.5C 348.926,26.0264 379.592,30.3598 409.5,39.5 Z"/></g>
<g><path style="opacity:1" fill="#b4e618" d="M 245.5,36.5 C 245.755,37.9361 246.088,39.4361 246.5,41C 245.833,41.3333 245.167,41.6667 244.5,42C 246.513,42.8753 246.513,44.2087 244.5,46C 247.844,46.5696 248.177,47.7362 245.5,49.5C 247.276,50.3148 247.943,51.4815 247.5,53C 246.833,53.6667 246.167,54.3333 245.5,55C 248.167,55.6667 248.167,56.3333 245.5,57C 246.767,58.7959 246.767,60.6293 245.5,62.5C 246.167,63.1667 246.833,63.8333 247.5,64.5C 246.193,65.865 246.193,67.1984 247.5,68.5C 228.499,74.9556 209.832,82.6223 191.5,91.5C 191.579,90.0695 191.246,88.7362 190.5,87.5C 191.441,87.5105 192.108,87.0105 192.5,86C 191.606,84.6043 190.939,83.1043 190.5,81.5C 191.031,78.2651 191.698,75.0985 192.5,72C 191.833,71.6667 191.167,71.3333 190.5,71C 193.443,69.5409 193.776,67.8743 191.5,66C 192.1,63.0651 192.1,60.3984 191.5,58C 193.805,56.0768 196.138,54.2435 198.5,52.5C 213.427,45.2138 229.094,39.8804 245.5,36.5 Z"/></g>
<g><path style="opacity:1" fill="#b4e61b" d="M 409.5,39.5 C 432.68,46.0912 454.68,55.4245 475.5,67.5C 473.069,68.7409 473.069,69.9076 475.5,71C 474.939,72.676 473.939,74.0094 472.5,75C 472.031,76.962 472.697,78.7953 474.5,80.5C 473.313,81.5195 472.313,82.6861 471.5,84C 472.5,85 473.5,86 474.5,87C 475.061,88.5655 474.394,89.8989 472.5,91C 474.436,93.1875 475.102,95.5208 474.5,98C 474.095,98.9454 473.428,99.6121 472.5,100C 473.412,101.625 472.745,102.459 470.5,102.5C 450.384,90.5762 429.384,80.5762 407.5,72.5C 408.5,72.5 409.5,72.5 410.5,72.5C 410.657,71.1266 410.49,69.7932 410,68.5C 409.667,68.8333 409.333,69.1667 409,69.5C 408.639,66.5629 409.139,63.7296 410.5,61C 410.05,59.7147 409.383,58.548 408.5,57.5C 409.55,55.8983 408.883,55.065 406.5,55C 408.301,54.6827 408.634,54.016 407.5,53C 408.293,51.9148 408.96,50.7481 409.5,49.5C 407.355,48.3175 407.355,46.8175 409.5,45C 409.348,43.0757 409.348,41.2424 409.5,39.5 Z"/></g>
<g><path style="opacity:1" fill="#020201" d="M 407.5,72.5 C 429.384,80.5762 450.384,90.5762 470.5,102.5C 493.286,117.613 513.62,135.613 531.5,156.5C 593.841,235.653 610.341,323.653 581,420.5C 569.315,453.612 552.481,483.612 530.5,510.5C 512.639,530.037 492.972,547.37 471.5,562.5C 450.97,575.265 429.303,585.599 406.5,593.5C 348.214,611.474 290.214,610.807 232.5,591.5C 231.741,589.569 230.407,588.069 228.5,587C 217.599,582.883 206.933,578.217 196.5,573C 194.527,572.505 192.527,572.338 190.5,572.5C 184.527,569.179 178.527,565.845 172.5,562.5C 171.833,561.833 171.167,561.167 170.5,560.5C 171.263,559.732 172.263,559.232 173.5,559C 151.112,544.958 131.446,527.624 114.5,507C 113.584,506.626 112.75,506.126 112,505.5C 111.601,505.728 111.435,506.062 111.5,506.5C 96.8355,489.628 84.6688,470.962 75,450.5C 66.1128,431.09 59.2794,411.09 54.5,390.5C 39.0813,314.988 52.0813,244.988 93.5,180.5C 109.373,158.957 127.373,139.291 147.5,121.5C 161.51,110.498 176.177,100.498 191.5,91.5C 209.832,82.6223 228.499,74.9556 247.5,68.5C 301.209,55.3676 354.543,56.7009 407.5,72.5 Z"/></g>
<g><path style="opacity:1" fill="#c0e413" d="M 198.5,52.5 C 196.138,54.2435 193.805,56.0768 191.5,58C 192.1,60.3984 192.1,63.0651 191.5,66C 193.776,67.8743 193.443,69.5409 190.5,71C 191.167,71.3333 191.833,71.6667 192.5,72C 191.698,75.0985 191.031,78.2651 190.5,81.5C 190.939,83.1043 191.606,84.6043 192.5,86C 192.108,87.0105 191.441,87.5105 190.5,87.5C 191.246,88.7362 191.579,90.0695 191.5,91.5C 176.177,100.498 161.51,110.498 147.5,121.5C 148.157,116.843 148.157,112.343 147.5,108C 148.167,107.667 148.833,107.333 149.5,107C 148.642,105.212 147.642,103.378 146.5,101.5C 147.441,101.511 148.108,101.011 148.5,100C 147.795,98.5781 147.461,97.2447 147.5,96C 148.167,95.6667 148.833,95.3333 149.5,95C 148.253,93.5421 148.253,92.0421 149.5,90.5C 146.972,89.4826 146.972,88.3159 149.5,87C 147.845,85.5557 147.178,83.7224 147.5,81.5C 163.061,69.5457 180.061,59.8791 198.5,52.5 Z"/></g>
<g><path style="opacity:1" fill="#bfe151" d="M 324.5,136.5 C 323.833,136.5 323.167,136.5 322.5,136.5C 317.486,132.649 313.319,127.983 310,122.5C 309.369,115.282 310.369,108.282 313,101.5C 316,94.8333 319,88.1667 322,81.5C 330.543,66.22 337.543,66.8867 343,83.5C 346.034,90.9061 347.034,98.5728 346,106.5C 335.478,114.175 328.311,124.175 324.5,136.5 Z"/></g>
<g><path style="opacity:1" fill="#c0e517" d="M 475.5,67.5 C 497.518,80.1824 517.518,95.5157 535.5,113.5C 534.417,113.461 533.417,113.127 532.5,112.5C 530.048,116.107 530.048,119.273 532.5,122C 532.104,123.897 531.104,125.397 529.5,126.5C 530.826,126.205 532.159,126.705 533.5,128C 530.833,129.667 530.833,131.333 533.5,133C 532.939,134.676 531.939,136.009 530.5,137C 531.167,137.667 531.833,138.333 532.5,139C 531.949,140.398 531.616,141.732 531.5,143C 534.943,143.221 535.276,144.221 532.5,146C 533.167,146.333 533.833,146.667 534.5,147C 533.495,148.507 532.162,149.673 530.5,150.5C 532.735,152.156 533.068,154.156 531.5,156.5C 513.62,135.613 493.286,117.613 470.5,102.5C 472.745,102.459 473.412,101.625 472.5,100C 473.428,99.6121 474.095,98.9454 474.5,98C 475.102,95.5208 474.436,93.1875 472.5,91C 474.394,89.8989 475.061,88.5655 474.5,87C 473.5,86 472.5,85 471.5,84C 472.313,82.6861 473.313,81.5195 474.5,80.5C 472.697,78.7953 472.031,76.962 472.5,75C 473.939,74.0094 474.939,72.676 475.5,71C 473.069,69.9076 473.069,68.7409 475.5,67.5 Z"/></g>
<g><path style="opacity:1" fill="#c1e452" d="M 370.5,90.5 C 373.385,91.545 375.552,93.545 377,96.5C 379.837,101.172 381.837,106.172 383,111.5C 385.467,129.625 384.8,147.625 381,165.5C 376.138,176.042 370.805,186.375 365,196.5C 362.202,201.263 359.036,205.763 355.5,210C 353.323,211.202 350.989,211.702 348.5,211.5C 347.347,196.932 344.847,182.599 341,168.5C 336.32,160.468 331.653,152.468 327,144.5C 326.333,141.5 326.333,138.5 327,135.5C 331.723,123.556 339.223,113.723 349.5,106C 356.568,100.812 363.568,95.6456 370.5,90.5 Z"/></g>
<g><path style="opacity:1" fill="#cde30d" d="M 147.5,81.5 C 147.178,83.7224 147.845,85.5557 149.5,87C 146.972,88.3159 146.972,89.4826 149.5,90.5C 148.253,92.0421 148.253,93.5421 149.5,95C 148.833,95.3333 148.167,95.6667 147.5,96C 147.461,97.2447 147.795,98.5781 148.5,100C 148.108,101.011 147.441,101.511 146.5,101.5C 147.642,103.378 148.642,105.212 149.5,107C 148.833,107.333 148.167,107.667 147.5,108C 148.157,112.343 148.157,116.843 147.5,121.5C 127.373,139.291 109.373,158.957 93.5,180.5C 92.0474,179.175 92.3808,178.342 94.5,178C 93.8333,177.667 93.1667,177.333 92.5,177C 95.0544,174.731 95.0544,172.398 92.5,170C 96.0016,169.344 96.0016,168.011 92.5,166C 93.1667,165 93.8333,164 94.5,163C 93.1667,161.667 93.1667,160.333 94.5,159C 93.6919,158.692 93.0253,158.192 92.5,157.5C 93.1667,155.833 93.8333,154.167 94.5,152.5C 94.2816,150.724 94.2816,148.891 94.5,147C 92.2064,144.987 92.2064,142.82 94.5,140.5C 93.3595,139.575 93.3595,138.741 94.5,138C 93.8333,137.667 93.1667,137.333 92.5,137C 94.1814,135.055 94.848,133.055 94.5,131C 93.9056,130.536 93.2389,130.369 92.5,130.5C 108.673,111.655 127.007,95.3218 147.5,81.5 Z"/></g>
<g><path style="opacity:1" fill="#c2e552" d="M 322.5,136.5 C 323.065,138.952 323.732,141.285 324.5,143.5C 325.17,146.673 326.336,149.673 328,152.5C 332.438,158.375 336.105,164.708 339,171.5C 345.296,190.522 346.629,209.856 343,229.5C 339.502,237.691 334.669,244.858 328.5,251C 326.5,251.667 324.5,251.667 322.5,251C 310.828,243.495 298.828,236.495 286.5,230C 278.134,221.943 272.967,212.11 271,200.5C 270.333,191.5 270.333,182.5 271,173.5C 274.109,159.967 277.776,146.634 282,133.5C 289.391,107.098 299.724,105.765 313,129.5C 315.501,132.848 318.668,135.182 322.5,136.5 Z"/></g>
<g><path style="opacity:1" fill="#bcde50" d="M 267.5,112.5 C 274.196,112.731 280.53,114.398 286.5,117.5C 280.387,133.281 274.887,149.281 270,165.5C 269.667,156.833 269.333,148.167 269,139.5C 266.787,130.735 262.287,123.402 255.5,117.5C 259.079,114.707 263.079,113.041 267.5,112.5 Z"/></g>
<g><path style="opacity:1" fill="#70842f" d="M 322.5,136.5 C 323.167,136.5 323.833,136.5 324.5,136.5C 324.5,138.833 324.5,141.167 324.5,143.5C 323.732,141.285 323.065,138.952 322.5,136.5 Z"/></g>
<g><path style="opacity:1" fill="#c0e251" d="M 209.5,162.5 C 221.256,162.115 232.923,162.949 244.5,165C 253.368,165.685 260.868,169.185 267,175.5C 266.989,186.935 267.989,198.268 270,209.5C 272.322,215.477 275.155,221.143 278.5,226.5C 277.277,227.614 275.944,227.781 274.5,227C 266.654,220.517 259.821,213.017 254,204.5C 244.769,194.599 234.936,185.433 224.5,177C 217.243,172.205 209.576,168.205 201.5,165C 204.457,164.721 207.123,163.887 209.5,162.5 Z"/></g>
<g><path style="opacity:1" fill="#cce415" d="M 535.5,113.5 C 564.576,141.629 587.243,174.295 603.5,211.5C 606.982,221.286 610.649,230.952 614.5,240.5C 621.219,263.713 625.552,287.38 627.5,311.5C 627.5,321.833 627.5,332.167 627.5,342.5C 624.424,416.268 598.924,480.935 551,536.5C 544.965,542.703 538.798,548.703 532.5,554.5C 532.121,553.194 531.788,551.861 531.5,550.5C 533.991,549.459 533.991,548.626 531.5,548C 532.623,546.956 533.956,546.29 535.5,546C 534.5,545.667 533.5,545.333 532.5,545C 533.458,543.853 533.125,542.853 531.5,542C 533.645,540.182 533.645,538.682 531.5,537.5C 531.977,536.522 532.643,535.689 533.5,535C 532.572,534.612 531.905,533.945 531.5,533C 532.848,531.445 533.514,529.611 533.5,527.5C 532.028,524.496 531.028,521.496 530.5,518.5C 531.5,517.667 532.5,516.833 533.5,516C 530.833,515.333 530.833,514.667 533.5,514C 531.21,513.277 530.21,512.11 530.5,510.5C 552.481,483.612 569.315,453.612 581,420.5C 610.341,323.653 593.841,235.653 531.5,156.5C 533.068,154.156 532.735,152.156 530.5,150.5C 532.162,149.673 533.495,148.507 534.5,147C 533.833,146.667 533.167,146.333 532.5,146C 535.276,144.221 534.943,143.221 531.5,143C 531.616,141.732 531.949,140.398 532.5,139C 531.833,138.333 531.167,137.667 530.5,137C 531.939,136.009 532.939,134.676 533.5,133C 530.833,131.333 530.833,129.667 533.5,128C 532.159,126.705 530.826,126.205 529.5,126.5C 531.104,125.397 532.104,123.897 532.5,122C 530.048,119.273 530.048,116.107 532.5,112.5C 533.417,113.127 534.417,113.461 535.5,113.5 Z"/></g>
<g><path style="opacity:1" fill="#c1e351" d="M 422.5,169.5 C 429.841,169.334 437.174,169.5 444.5,170C 448.825,172.129 449.659,175.296 447,179.5C 427.736,195.433 407.903,210.6 387.5,225C 376.46,234.51 365.46,244.01 354.5,253.5C 354.667,253.833 354.833,254.167 355,254.5C 360.219,251.136 365.386,247.636 370.5,244C 378.111,242.522 385.778,242.188 393.5,243C 409.039,249.392 424.039,256.725 438.5,265C 444.959,269.79 451.126,274.957 457,280.5C 461.227,287.954 459.061,290.454 450.5,288C 423.469,278.331 395.802,275.998 367.5,281C 362.322,284.422 357.322,288.089 352.5,292C 351.167,292.667 349.833,292.667 348.5,292C 342.638,284.377 340.304,275.877 341.5,266.5C 336.987,264.835 334.654,261.669 334.5,257C 334.637,254.102 335.137,251.269 336,248.5C 343.913,233.668 352.579,219.335 362,205.5C 368.135,198.364 374.635,191.531 381.5,185C 394.465,177.737 408.132,172.571 422.5,169.5 Z"/></g>
<g><path style="opacity:1" fill="#d8e108" d="M 92.5,130.5 C 93.2389,130.369 93.9056,130.536 94.5,131C 94.848,133.055 94.1814,135.055 92.5,137C 93.1667,137.333 93.8333,137.667 94.5,138C 93.3595,138.741 93.3595,139.575 94.5,140.5C 92.2064,142.82 92.2064,144.987 94.5,147C 94.2816,148.891 94.2816,150.724 94.5,152.5C 93.8333,154.167 93.1667,155.833 92.5,157.5C 93.0253,158.192 93.6919,158.692 94.5,159C 93.1667,160.333 93.1667,161.667 94.5,163C 93.8333,164 93.1667,165 92.5,166C 96.0016,168.011 96.0016,169.344 92.5,170C 95.0544,172.398 95.0544,174.731 92.5,177C 93.1667,177.333 93.8333,177.667 94.5,178C 92.3808,178.342 92.0474,179.175 93.5,180.5C 52.0813,244.988 39.0813,314.988 54.5,390.5C 54.7771,393.448 54.4438,396.281 53.5,399C 56.9462,400.896 57.2795,403.23 54.5,406C 55.1667,407 55.8333,408 56.5,409C 54.6061,410.101 53.9394,411.434 54.5,413C 55.1667,413.667 55.8333,414.333 56.5,415C 55.3147,416.353 53.9814,417.52 52.5,418.5C 53.5294,418.296 54.5294,418.796 55.5,420C 53.0122,421.685 53.3455,423.019 56.5,424C 55.7607,426.235 55.7607,428.235 56.5,430C 55.8333,430.333 55.1667,430.667 54.5,431C 56.2826,432.067 56.7826,433.567 56,435.5C 55.1627,433.993 53.9961,433.493 52.5,434C 54.0261,435.887 56.0261,436.887 58.5,437C 57.3774,438.044 56.0441,438.71 54.5,439C 55.4581,440.147 55.1247,441.147 53.5,442C 54.7899,444.292 56.4565,446.292 58.5,448C 57.5,449.667 56.1667,451 54.5,452C 54.6472,453.974 54.9805,455.974 55.5,458C 52.8076,460.632 53.141,462.966 56.5,465C 55.6433,465.689 54.9767,466.522 54.5,467.5C 55.782,469.179 56.782,471.013 57.5,473C 54.0458,473.293 53.7124,474.626 56.5,477C 55.9221,478.417 54.9221,479.25 53.5,479.5C 8.01727,392.642 3.51727,303.642 40,212.5C 53.2708,182.251 70.7708,154.917 92.5,130.5 Z"/></g>
<g><path style="opacity:0.899" fill="#1d210e" d="M 603.5,211.5 C 604.675,211.281 605.675,211.614 606.5,212.5C 610.157,221.414 613.157,229.581 615.5,237C 615.011,238.138 614.678,239.305 614.5,240.5C 610.649,230.952 606.982,221.286 603.5,211.5 Z"/></g>
<g><path style="opacity:1" fill="#c1e451" d="M 224.5,228.5 C 239.682,228.273 254.682,229.773 269.5,233C 283.5,238.333 297.5,243.667 311.5,249C 314.661,250.413 317.661,252.08 320.5,254C 324.572,254.956 328.405,254.456 332,252.5C 332.333,255.833 332.667,259.167 333,262.5C 336.244,266.894 337.911,271.894 338,277.5C 339.74,284.149 342.907,289.983 347.5,295C 319.529,303.336 295.029,297.502 274,277.5C 266.864,267.397 259.364,257.564 251.5,248C 243.033,241.543 234.033,235.876 224.5,231C 223.402,230.23 223.402,229.397 224.5,228.5 Z"/></g>
<g><path style="opacity:1" fill="#bee050" d="M 231.5,251.5 C 239.193,251.785 246.527,253.618 253.5,257C 260.812,265.829 267.478,274.996 273.5,284.5C 269.085,284.695 264.751,284.195 260.5,283C 251.459,277.208 241.625,274.041 231,273.5C 226.12,273.571 221.287,274.071 216.5,275C 210.812,277.18 205.145,279.347 199.5,281.5C 199.755,278.984 200.589,276.65 202,274.5C 206.5,270 211,265.5 215.5,261C 220.763,257.54 226.096,254.373 231.5,251.5 Z"/></g>
<g><path style="opacity:1" fill="#bfe150" d="M 367.5,285.5 C 375.587,285.141 382.921,287.307 389.5,292C 397.46,297.569 404.96,303.736 412,310.5C 412.667,312.833 412.667,315.167 412,317.5C 407.844,318.715 403.678,318.548 399.5,317C 384.82,313.413 370.487,308.746 356.5,303C 353.209,300.668 352.709,297.835 355,294.5C 359.003,291.1 363.17,288.1 367.5,285.5 Z"/></g>
<g><path style="opacity:1" fill="#bfe151" d="M 261.5,287.5 C 268.214,287.363 274.88,287.863 281.5,289C 287.079,291.566 292.412,294.399 297.5,297.5C 279.25,301.972 262.584,309.805 247.5,321C 245.246,322.15 242.913,322.484 240.5,322C 238.946,308.678 243.612,298.011 254.5,290C 256.927,289.098 259.26,288.264 261.5,287.5 Z"/></g>
<g><path style="opacity:1" fill="#bedf50" d="M 295.5,300.5 C 304.301,299.098 312.135,301.098 319,306.5C 319.711,308.367 319.211,309.867 317.5,311C 302.26,313.342 287.093,316.176 272,319.5C 266.705,318.206 266.038,315.539 270,311.5C 271.167,310.333 272.333,309.167 273.5,308C 280.958,305.48 288.291,302.98 295.5,300.5 Z"/></g>
<g><path style="opacity:1" fill="#bdde50" d="M 337.5,299.5 C 341.853,299.765 346.187,300.265 350.5,301C 352.741,304.796 356.074,307.129 360.5,308C 363.295,309.793 365.795,311.96 368,314.5C 368.667,316.5 368.667,318.5 368,320.5C 364.591,321.622 361.091,321.789 357.5,321C 348.061,318.307 338.727,315.307 329.5,312C 325.402,308.351 325.735,305.018 330.5,302C 332.927,301.098 335.26,300.264 337.5,299.5 Z"/></g>
<g><path style="opacity:0.976" fill="#2d3515" d="M 627.5,342.5 C 627.5,332.167 627.5,321.833 627.5,311.5C 628.327,306.015 628.827,300.348 629,294.5C 629.264,310.674 628.764,326.674 627.5,342.5 Z"/></g>
<g><path style="opacity:1" fill="#bfe151" d="M 310.5,314.5 C 316.176,314.334 321.843,314.501 327.5,315C 330.583,315.786 332.749,317.619 334,320.5C 334.315,329.257 332.315,337.59 328,345.5C 324.645,350.31 320.979,350.644 317,346.5C 313.141,339.254 309.475,331.921 306,324.5C 304.571,319.783 306.071,316.45 310.5,314.5 Z"/></g>
<g><path style="opacity:1" fill="#c1e351" d="M 284.5,319.5 C 296.191,319.256 304.024,324.59 308,335.5C 311.898,353.093 305.065,363.76 287.5,367.5C 278.567,364.733 271.901,359.233 267.5,351C 268.332,347.836 269.166,344.669 270,341.5C 273.21,336.414 275.876,331.081 278,325.5C 280.063,323.266 282.229,321.266 284.5,319.5 Z"/></g>
<g><path style="opacity:1" fill="#bfe251" d="M 268.5,320.5 C 270.833,320.5 273.167,320.5 275.5,320.5C 275.519,322.06 275.852,323.56 276.5,325C 274.525,330.966 271.692,336.466 268,341.5C 266.947,347.661 265.28,353.661 263,359.5C 262.215,361.286 261.049,362.786 259.5,364C 255.46,365.165 252.46,367.499 250.5,371C 250.388,372.662 251.054,373.829 252.5,374.5C 265.096,360.129 275.596,361.462 284,378.5C 289.314,397.209 282.647,409.209 264,414.5C 258.738,413.2 254.738,410.2 252,405.5C 249.274,400.823 247.441,395.823 246.5,390.5C 244.579,395.328 243.079,400.328 242,405.5C 238.667,407.247 235.833,409.58 233.5,412.5C 232.167,413.833 230.833,413.833 229.5,412.5C 226.906,409.478 225.572,405.978 225.5,402C 226.787,391.262 231.62,382.428 240,375.5C 241.586,373.33 242.92,370.996 244,368.5C 243.91,355.523 247.244,343.523 254,332.5C 258.627,328.123 263.461,324.123 268.5,320.5 Z"/></g>
<g><path style="opacity:1" fill="#c0e251" d="M 340.5,320.5 C 343.271,320.421 345.937,320.921 348.5,322C 354.959,326.79 361.126,331.957 367,337.5C 372.483,342.894 373.483,348.894 370,355.5C 366.167,360.667 361.667,365.167 356.5,369C 352.218,369.965 348.218,369.298 344.5,367C 342.167,365.333 339.833,363.667 337.5,362C 335.667,359.5 333.833,357 332,354.5C 331.333,350.833 331.333,347.167 332,343.5C 334.933,337.098 336.933,330.432 338,323.5C 339.045,322.627 339.878,321.627 340.5,320.5 Z"/></g>
<g><path style="opacity:1" fill="#c0e251" d="M 373.5,320.5 C 399.708,324.545 411.875,339.878 410,366.5C 408.71,368.792 407.043,370.792 405,372.5C 403.939,369.438 402.106,366.938 399.5,365C 392.39,361.363 385.89,356.863 380,351.5C 378.03,341.73 374.53,332.563 369.5,324C 370.347,322.229 371.68,321.063 373.5,320.5 Z"/></g>
<g><path style="opacity:1" fill="#c1e351" d="M 376.5,353.5 C 383.464,359.416 390.964,364.749 399,369.5C 401.94,375.046 404.606,380.713 407,386.5C 408.136,398.062 403.969,407.229 394.5,414C 391.167,414.667 387.833,414.667 384.5,414C 376.551,411.242 368.885,407.909 361.5,404C 355.739,398.763 353.905,392.263 356,384.5C 358.035,377.391 361.035,370.725 365,364.5C 368.802,360.525 372.636,356.858 376.5,353.5 Z"/></g>
<g><path style="opacity:1" fill="#c1e451" d="M 318.5,360.5 C 325.269,360.971 330.769,363.971 335,369.5C 339.048,373.88 342.715,378.546 346,383.5C 349.265,389.472 349.265,395.472 346,401.5C 339.833,407.667 333.667,413.833 327.5,420C 324.119,422.245 320.452,422.912 316.5,422C 311.009,417.754 305.342,413.754 299.5,410C 293.478,404.789 291.312,398.289 293,390.5C 299.578,378.764 308.078,368.764 318.5,360.5 Z"/></g>
<g><path style="opacity:1" fill="#bfe251" d="M 413.5,365.5 C 418.643,366.738 423.31,369.072 427.5,372.5C 430.284,379.067 432.784,385.734 435,392.5C 435.667,399.167 435.667,405.833 435,412.5C 433.349,417.136 431.182,421.47 428.5,425.5C 424.769,423.39 421.936,420.39 420,416.5C 413.504,404.227 410.337,391.06 410.5,377C 410.48,372.881 411.48,369.048 413.5,365.5 Z"/></g>
<g><path style="opacity:1" fill="#d3e10a" d="M 54.5,390.5 C 59.2794,411.09 66.1128,431.09 75,450.5C 84.6688,470.962 96.8355,489.628 111.5,506.5C 114.582,510.984 117.916,515.317 121.5,519.5C 120.355,520.793 120.689,521.959 122.5,523C 121.576,523.85 121.576,524.85 122.5,526C 122.095,526.945 121.428,527.612 120.5,528C 122.891,528.691 122.891,529.691 120.5,531C 122.422,532.46 123.089,534.127 122.5,536C 120.109,537.309 120.109,538.309 122.5,539C 121.196,539.804 120.529,540.971 120.5,542.5C 121.688,544.644 121.688,546.811 120.5,549C 120.861,551.449 121.528,553.782 122.5,556C 121.833,556.667 121.167,557.333 120.5,558C 122.26,561.388 121.593,562.554 118.5,561.5C 91.5956,538.269 69.9289,510.935 53.5,479.5C 54.9221,479.25 55.9221,478.417 56.5,477C 53.7124,474.626 54.0458,473.293 57.5,473C 56.782,471.013 55.782,469.179 54.5,467.5C 54.9767,466.522 55.6433,465.689 56.5,465C 53.141,462.966 52.8076,460.632 55.5,458C 54.9805,455.974 54.6472,453.974 54.5,452C 56.1667,451 57.5,449.667 58.5,448C 56.4565,446.292 54.7899,444.292 53.5,442C 55.1247,441.147 55.4581,440.147 54.5,439C 56.0441,438.71 57.3774,438.044 58.5,437C 56.0261,436.887 54.0261,435.887 52.5,434C 53.9961,433.493 55.1627,433.993 56,435.5C 56.7826,433.567 56.2826,432.067 54.5,431C 55.1667,430.667 55.8333,430.333 56.5,430C 55.7607,428.235 55.7607,426.235 56.5,424C 53.3455,423.019 53.0122,421.685 55.5,420C 54.5294,418.796 53.5294,418.296 52.5,418.5C 53.9814,417.52 55.3147,416.353 56.5,415C 55.8333,414.333 55.1667,413.667 54.5,413C 53.9394,411.434 54.6061,410.101 56.5,409C 55.8333,408 55.1667,407 54.5,406C 57.2795,403.23 56.9462,400.896 53.5,399C 54.4438,396.281 54.7771,393.448 54.5,390.5 Z"/></g>
<g><path style="opacity:1" fill="#bfe251" d="M 248.5,405.5 C 259.876,419.064 261.376,433.73 253,449.5C 250.315,453.927 246.482,455.76 241.5,455C 237.667,451.167 233.833,447.333 230,443.5C 225.649,438.395 224.649,432.728 227,426.5C 231.551,416.647 238.718,409.647 248.5,405.5 Z"/></g>
<g><path style="opacity:1" fill="#c1e351" d="M 282.5,406.5 C 285.271,406.421 287.937,406.921 290.5,408C 301.233,414.651 307.567,424.151 309.5,436.5C 309.52,441.628 307.52,445.794 303.5,449C 295.982,452.532 288.482,456.032 281,459.5C 270.207,455.873 263.374,448.54 260.5,437.5C 260.371,425.482 265.704,416.982 276.5,412C 278.763,410.383 280.763,408.55 282.5,406.5 Z"/></g>
<g><path style="opacity:1" fill="#c1e351" d="M 349.5,407.5 C 357.014,407.092 363.68,409.258 369.5,414C 375.043,419.874 380.21,426.041 385,432.5C 386.04,436.533 385.374,440.199 383,443.5C 378.458,449.71 372.958,454.876 366.5,459C 364.087,459.484 361.754,459.15 359.5,458C 349.5,452.667 339.5,447.333 329.5,442C 327.036,439.274 326.203,436.107 327,432.5C 331.019,423.829 336.519,416.329 343.5,410C 345.611,409.155 347.611,408.322 349.5,407.5 Z"/></g>
<g><path style="opacity:1" fill="#c0e251" d="M 413.5,411.5 C 416.309,415.768 419.143,420.102 422,424.5C 427.128,427.757 429.294,432.424 428.5,438.5C 428.793,442.45 427.96,446.116 426,449.5C 421.833,452.333 418.333,455.833 415.5,460C 414.391,460.638 413.225,461.138 412,461.5C 406.667,456.17 401.001,451.17 395,446.5C 389.751,440.74 389.084,434.406 393,427.5C 395.333,423.833 397.667,420.167 400,416.5C 404.054,413.367 408.554,411.701 413.5,411.5 Z"/></g>
<g><path style="opacity:1" fill="#c1e452" d="M 311.5,445.5 C 324.228,443.129 334.394,447.129 342,457.5C 345.394,461.898 348.394,466.565 351,471.5C 352.287,477.018 351.287,482.018 348,486.5C 341.547,491.986 335.38,497.82 329.5,504C 323.801,508.565 318.134,508.565 312.5,504C 304.03,496.531 295.863,488.698 288,480.5C 287.088,476.548 287.755,472.881 290,469.5C 296.49,460.821 303.657,452.821 311.5,445.5 Z"/></g>
<g><path style="opacity:1" fill="#bdde50" d="M 226.5,445.5 C 234.346,449.874 239.513,456.54 242,465.5C 244.949,473.955 245.949,482.622 245,491.5C 244.224,495.95 241.724,497.45 237.5,496C 226.763,482.003 222.263,466.17 224,448.5C 225.045,447.627 225.878,446.627 226.5,445.5 Z"/></g>
<g><path style="opacity:1" fill="#c0e251" d="M 390.5,447.5 C 391.675,447.281 392.675,447.614 393.5,448.5C 397.873,453.372 402.373,458.038 407,462.5C 409.738,467.881 411.572,473.548 412.5,479.5C 411.722,487.73 407.888,494.063 401,498.5C 399.299,501.662 396.966,503.995 394,505.5C 393.167,505.333 392.333,505.167 391.5,505C 389.539,502.037 387.206,499.371 384.5,497C 379.373,494.603 374.373,491.936 369.5,489C 368.003,486.008 367.003,482.841 366.5,479.5C 368.846,471.808 372.013,464.474 376,457.5C 380.987,454.267 385.82,450.934 390.5,447.5 Z"/></g>
<g><path style="opacity:1" fill="#bfe151" d="M 255.5,452.5 C 260.029,452.496 263.529,454.496 266,458.5C 268.753,463.008 271.753,467.341 275,471.5C 279.711,481.41 277.711,489.744 269,496.5C 267.392,499.382 266.059,502.382 265,505.5C 262.034,508.265 259.367,507.932 257,504.5C 254.814,500.802 252.147,497.468 249,494.5C 248.973,485.397 248.139,476.397 246.5,467.5C 246.75,460.709 249.75,455.709 255.5,452.5 Z"/></g>
<g><path style="opacity:1" fill="#bee050" d="M 424.5,454.5 C 426.451,454.227 427.951,454.893 429,456.5C 428.987,462.055 429.987,467.388 432,472.5C 432.664,482.847 430.33,492.513 425,501.5C 423.499,503.584 421.499,504.917 419,505.5C 416.592,502.412 413.925,499.412 411,496.5C 410.495,492.486 411.495,488.819 414,485.5C 414.149,477.604 415.482,469.937 418,462.5C 420.001,459.669 422.167,457.003 424.5,454.5 Z"/></g>
<g><path style="opacity:1" fill="#c0e351" d="M 278.5,492.5 C 284.626,491.467 289.959,492.967 294.5,497C 301.286,502.399 306.786,508.899 311,516.5C 311.667,519.167 311.667,521.833 311,524.5C 308.453,531.585 306.286,538.751 304.5,546C 302.167,546.667 299.833,546.667 297.5,546C 287.729,540.7 278.563,534.534 270,527.5C 268.971,524.61 267.805,521.776 266.5,519C 267.664,511.843 269.831,505.01 273,498.5C 274.36,495.977 276.193,493.977 278.5,492.5 Z"/></g>
<g><path style="opacity:1" fill="#c0e351" d="M 353.5,492.5 C 360.721,492.523 366.888,495.189 372,500.5C 375.706,506.782 378.539,513.448 380.5,520.5C 377.964,526.383 374.297,531.549 369.5,536C 363.628,541.015 357.128,544.848 350,547.5C 345.435,546.71 341.768,544.377 339,540.5C 334.41,533.986 330.91,526.986 328.5,519.5C 329.985,512.377 333.652,506.544 339.5,502C 344.071,498.579 348.737,495.412 353.5,492.5 Z"/></g>
<g><path style="opacity:1" fill="#bcdd4f" d="M 245.5,499.5 C 247.39,499.297 248.89,499.963 250,501.5C 256.851,509.196 262.184,517.862 266,527.5C 266.499,531.152 266.665,534.818 266.5,538.5C 253.731,532.667 246.564,522.667 245,508.5C 244.264,505.408 244.431,502.408 245.5,499.5 Z"/></g>
<g><path style="opacity:1" fill="#bee050" d="M 404.5,498.5 C 408.601,498.43 411.101,500.43 412,504.5C 413.895,517.15 409.728,527.316 399.5,535C 395.676,538.079 391.676,540.912 387.5,543.5C 386.424,540.352 385.091,537.352 383.5,534.5C 387.945,520.933 394.945,508.933 404.5,498.5 Z"/></g>
<g><path style="opacity:1" fill="#111207" d="M 170.5,560.5 C 152.705,548.715 136.371,535.049 121.5,519.5C 117.916,515.317 114.582,510.984 111.5,506.5C 111.435,506.062 111.601,505.728 112,505.5C 112.75,506.126 113.584,506.626 114.5,507C 131.446,527.624 151.112,544.958 173.5,559C 172.263,559.232 171.263,559.732 170.5,560.5 Z"/></g>
<g><path style="opacity:1" fill="#bee050" d="M 318.5,527.5 C 320.722,527.178 322.556,527.845 324,529.5C 327.585,535.002 330.919,540.669 334,546.5C 334.758,548.769 334.591,550.936 333.5,553C 326.916,554.544 320.249,554.877 313.5,554C 313,553.5 312.5,553 312,552.5C 311.713,550.109 311.213,547.776 310.5,545.5C 312.607,539.152 315.274,533.152 318.5,527.5 Z"/></g>
<g><path style="opacity:1" fill="#bbdd4f" d="M 375.5,534.5 C 384.3,537.191 385.633,541.858 379.5,548.5C 372.507,553.341 364.84,555.174 356.5,554C 354.74,553.035 354.406,551.868 355.5,550.5C 363.076,546.252 369.743,540.919 375.5,534.5 Z"/></g>
<g><path style="opacity:1" fill="#bcdd4f" d="M 271.5,535.5 C 280.718,539.307 288.885,544.307 296,550.5C 290.06,554.189 283.894,554.356 277.5,551C 272.02,547.046 270.02,541.88 271.5,535.5 Z"/></g>
<g><path style="opacity:1" fill="#c4e311" d="M 121.5,519.5 C 136.371,535.049 152.705,548.715 170.5,560.5C 171.167,561.167 171.833,561.833 172.5,562.5C 171.596,563.209 171.263,564.209 171.5,565.5C 169.058,565.354 168.391,566.187 169.5,568C 167.717,569.067 167.217,570.567 168,572.5C 168.92,572.93 169.753,573.264 170.5,573.5C 167.959,575.909 166.626,578.576 166.5,581.5C 170.458,586.524 170.458,591.524 166.5,596.5C 149.073,586.787 133.073,575.12 118.5,561.5C 121.593,562.554 122.26,561.388 120.5,558C 121.167,557.333 121.833,556.667 122.5,556C 121.528,553.782 120.861,551.449 120.5,549C 121.688,546.811 121.688,544.644 120.5,542.5C 120.529,540.971 121.196,539.804 122.5,539C 120.109,538.309 120.109,537.309 122.5,536C 123.089,534.127 122.422,532.46 120.5,531C 122.891,529.691 122.891,528.691 120.5,528C 121.428,527.612 122.095,526.945 122.5,526C 121.576,524.85 121.576,523.85 122.5,523C 120.689,521.959 120.355,520.793 121.5,519.5 Z"/></g>
<g><path style="opacity:1" fill="#bee618" d="M 530.5,510.5 C 530.21,512.11 531.21,513.277 533.5,514C 530.833,514.667 530.833,515.333 533.5,516C 532.5,516.833 531.5,517.667 530.5,518.5C 531.028,521.496 532.028,524.496 533.5,527.5C 533.514,529.611 532.848,531.445 531.5,533C 531.905,533.945 532.572,534.612 533.5,535C 532.643,535.689 531.977,536.522 531.5,537.5C 533.645,538.682 533.645,540.182 531.5,542C 533.125,542.853 533.458,543.853 532.5,545C 533.5,545.333 534.5,545.667 535.5,546C 533.956,546.29 532.623,546.956 531.5,548C 533.991,548.626 533.991,549.459 531.5,550.5C 531.788,551.861 532.121,553.194 532.5,554.5C 515.097,572.241 495.431,586.907 473.5,598.5C 472.952,597.312 472.619,596.145 472.5,595C 474.891,594.309 474.891,593.309 472.5,592C 474.301,591.683 474.634,591.016 473.5,590C 474.26,588.559 474.926,587.059 475.5,585.5C 474.603,585.331 473.603,584.998 472.5,584.5C 474.973,582.902 474.973,581.402 472.5,580C 473.308,579.692 473.975,579.192 474.5,578.5C 473.167,577.5 473.167,576.5 474.5,575.5C 473.975,574.808 473.308,574.308 472.5,574C 473.578,573.326 474.245,572.326 474.5,571C 473.824,568.667 473.824,566.5 474.5,564.5C 473.643,563.575 472.643,562.908 471.5,562.5C 492.972,547.37 512.639,530.037 530.5,510.5 Z"/></g>
<g><path style="opacity:1" fill="#b8e516" d="M 172.5,562.5 C 178.527,565.845 184.527,569.179 190.5,572.5C 199.109,577.925 208.109,582.592 217.5,586.5C 216.351,586.791 215.684,587.624 215.5,589C 216.247,590.866 216.581,592.533 216.5,594C 215.833,594.667 215.167,595.333 214.5,596C 214.745,598.649 215.411,601.482 216.5,604.5C 216.471,606.029 215.804,607.196 214.5,608C 215.428,608.388 216.095,609.055 216.5,610C 216.189,612.323 215.856,614.656 215.5,617C 216.126,617.75 216.626,618.584 217,619.5C 217.718,618.549 218.551,618.383 219.5,619C 218.748,619.671 218.414,620.504 218.5,621.5C 200.06,615.279 182.727,606.946 166.5,596.5C 170.458,591.524 170.458,586.524 166.5,581.5C 166.626,578.576 167.959,575.909 170.5,573.5C 169.753,573.264 168.92,572.93 168,572.5C 167.217,570.567 167.717,569.067 169.5,568C 168.391,566.187 169.058,565.354 171.5,565.5C 171.263,564.209 171.596,563.209 172.5,562.5 Z"/></g>
<g><path style="opacity:1" fill="#b2e61b" d="M 471.5,562.5 C 472.643,562.908 473.643,563.575 474.5,564.5C 473.824,566.5 473.824,568.667 474.5,571C 474.245,572.326 473.578,573.326 472.5,574C 473.308,574.308 473.975,574.808 474.5,575.5C 473.167,576.5 473.167,577.5 474.5,578.5C 473.975,579.192 473.308,579.692 472.5,580C 474.973,581.402 474.973,582.902 472.5,584.5C 473.603,584.998 474.603,585.331 475.5,585.5C 474.926,587.059 474.26,588.559 473.5,590C 474.634,591.016 474.301,591.683 472.5,592C 474.891,593.309 474.891,594.309 472.5,595C 472.619,596.145 472.952,597.312 473.5,598.5C 453.426,610.533 432.093,619.866 409.5,626.5C 409.879,625.194 410.212,623.861 410.5,622.5C 409.624,621.749 408.624,621.249 407.5,621C 410.083,617.825 410.416,614.658 408.5,611.5C 410.022,609.844 409.689,608.677 407.5,608C 408.13,606.108 409.13,604.441 410.5,603C 407.724,601.221 408.057,600.221 411.5,600C 408.332,599.418 407.999,598.418 410.5,597C 409.468,595.373 408.134,594.207 406.5,593.5C 429.303,585.599 450.97,575.265 471.5,562.5 Z"/></g>
<g><path style="opacity:1" fill="#161809" d="M 190.5,572.5 C 192.527,572.338 194.527,572.505 196.5,573C 206.933,578.217 217.599,582.883 228.5,587C 230.407,588.069 231.741,589.569 232.5,591.5C 227.426,590.031 222.426,588.364 217.5,586.5C 208.109,582.592 199.109,577.925 190.5,572.5 Z"/></g>
<g><path style="opacity:1" fill="#a8e71d" d="M 217.5,586.5 C 222.426,588.364 227.426,590.031 232.5,591.5C 290.214,610.807 348.214,611.474 406.5,593.5C 408.134,594.207 409.468,595.373 410.5,597C 407.999,598.418 408.332,599.418 411.5,600C 408.057,600.221 407.724,601.221 410.5,603C 409.13,604.441 408.13,606.108 407.5,608C 409.689,608.677 410.022,609.844 408.5,611.5C 410.416,614.658 410.083,617.825 407.5,621C 408.624,621.249 409.624,621.749 410.5,622.5C 410.212,623.861 409.879,625.194 409.5,626.5C 345.247,645.206 281.58,643.539 218.5,621.5C 218.414,620.504 218.748,619.671 219.5,619C 218.551,618.383 217.718,618.549 217,619.5C 216.626,618.584 216.126,617.75 215.5,617C 215.856,614.656 216.189,612.323 216.5,610C 216.095,609.055 215.428,608.388 214.5,608C 215.804,607.196 216.471,606.029 216.5,604.5C 215.411,601.482 214.745,598.649 214.5,596C 215.167,595.333 215.833,594.667 216.5,594C 216.581,592.533 216.247,590.866 215.5,589C 215.684,587.624 216.351,586.791 217.5,586.5 Z"/></g>
</svg>
